<svg width="85" height="18" viewBox="0 0 85 18" fill="none" xmlns="http://www.w3.org/2000/svg">
<g id="logo">
<g id="RAVEN">
<path d="M0 0.372782C0.4 0.388782 0.912 0.404781 1.536 0.420781C2.16 0.436781 2.784 0.444781 3.408 0.444781C4.192 0.444781 4.936 0.436781 5.64 0.420781C6.344 0.404781 6.84 0.396781 7.128 0.396781C8.568 0.396781 9.752 0.572781 10.68 0.92478C11.624 1.26078 12.328 1.74078 12.792 2.36478C13.256 2.98878 13.488 3.72478 13.488 4.57278C13.488 5.10078 13.384 5.64478 13.176 6.20478C12.968 6.74878 12.608 7.25278 12.096 7.71678C11.584 8.18078 10.88 8.56478 9.984 8.86878C9.104 9.15678 7.976 9.30078 6.6 9.30078H4.296V8.82078H6.36C7.368 8.82078 8.136 8.64478 8.664 8.29278C9.208 7.92478 9.568 7.44478 9.744 6.85278C9.936 6.24478 10.032 5.57278 10.032 4.83678C10.032 3.57278 9.784 2.59678 9.288 1.90878C8.792 1.20478 7.936 0.852781 6.72 0.852781C6.064 0.852781 5.632 0.988781 5.424 1.26078C5.232 1.53278 5.136 2.08478 5.136 2.91678V14.8208C5.136 15.3968 5.184 15.8288 5.28 16.1168C5.376 16.4048 5.552 16.5968 5.808 16.6928C6.08 16.7888 6.472 16.8528 6.984 16.8848V17.3648C6.584 17.3328 6.072 17.3168 5.448 17.3168C4.824 17.3008 4.192 17.2928 3.552 17.2928C2.832 17.2928 2.16 17.3008 1.536 17.3168C0.912 17.3168 0.4 17.3328 0 17.3648V16.8848C0.528 16.8528 0.92 16.7888 1.176 16.6928C1.448 16.5968 1.624 16.4048 1.704 16.1168C1.8 15.8288 1.848 15.3968 1.848 14.8208V2.91678C1.848 2.32478 1.8 1.89278 1.704 1.62078C1.624 1.33278 1.448 1.14078 1.176 1.04478C0.92 0.932781 0.528 0.868781 0 0.852781V0.372782ZM4.296 8.89278C5.048 8.92478 5.672 8.96478 6.168 9.01278C6.68 9.04478 7.112 9.07678 7.464 9.10878C7.832 9.14078 8.16 9.18078 8.448 9.22878C9.776 9.35678 10.752 9.66878 11.376 10.1648C12.016 10.6448 12.44 11.3808 12.648 12.3728L13.2 14.8448C13.344 15.5008 13.496 15.9728 13.656 16.2608C13.832 16.5328 14.08 16.6608 14.4 16.6448C14.624 16.6448 14.816 16.5888 14.976 16.4768C15.136 16.3488 15.296 16.1808 15.456 15.9728L15.792 16.2608C15.392 16.7568 14.968 17.1248 14.52 17.3648C14.072 17.5888 13.504 17.7008 12.816 17.7008C12.048 17.7008 11.4 17.5248 10.872 17.1728C10.344 16.8048 9.984 16.1168 9.792 15.1088L9.336 12.7088C9.208 12.0368 9.056 11.4448 8.88 10.9328C8.72 10.4208 8.496 10.0208 8.208 9.73278C7.92 9.44478 7.496 9.30078 6.936 9.30078H4.344L4.296 8.89278Z" fill="black"/>
<path d="M25.7702 0.300781L31.6022 15.3488C31.8422 15.9248 32.0982 16.3248 32.3702 16.5488C32.6582 16.7568 32.9222 16.8688 33.1622 16.8848V17.3648C32.7462 17.3328 32.2422 17.3168 31.6502 17.3168C31.0742 17.3008 30.4822 17.2928 29.8742 17.2928C29.1702 17.2928 28.5142 17.3008 27.9062 17.3168C27.2982 17.3168 26.8022 17.3328 26.4182 17.3648V16.8848C27.2342 16.8528 27.7542 16.7168 27.9782 16.4768C28.2022 16.2208 28.1542 15.6848 27.8342 14.8688L23.6102 3.46878L24.0422 2.94078L20.2022 12.9008C19.8982 13.7008 19.7142 14.3568 19.6502 14.8688C19.5862 15.3808 19.6262 15.7808 19.7702 16.0688C19.9142 16.3568 20.1542 16.5648 20.4902 16.6928C20.8262 16.8048 21.2422 16.8688 21.7382 16.8848V17.3648C21.2262 17.3328 20.7302 17.3168 20.2502 17.3168C19.7702 17.3008 19.2902 17.2928 18.8102 17.2928C18.4582 17.2928 18.1222 17.3008 17.8022 17.3168C17.4982 17.3168 17.2262 17.3328 16.9862 17.3648V16.8848C17.3382 16.8048 17.6822 16.5968 18.0182 16.2608C18.3702 15.9248 18.7062 15.3408 19.0262 14.5088L24.5222 0.300781C24.7142 0.316781 24.9222 0.324781 25.1462 0.324781C25.3702 0.324781 25.5782 0.316781 25.7702 0.300781ZM27.8582 10.4528V10.9328H20.7062L20.9462 10.4528H27.8582Z" fill="black"/>
<path d="M49.287 0.372782V0.852781C48.967 0.964781 48.615 1.22078 48.231 1.62078C47.847 2.00478 47.503 2.61278 47.199 3.44478L41.943 17.4368C41.847 17.4368 41.743 17.4288 41.631 17.4128C41.535 17.4128 41.431 17.4128 41.319 17.4128C41.207 17.4128 41.095 17.4128 40.983 17.4128C40.887 17.4288 40.791 17.4368 40.695 17.4368L34.671 2.38878C34.431 1.79678 34.167 1.39678 33.879 1.18878C33.607 0.980781 33.351 0.868781 33.111 0.852781V0.372782C33.527 0.388782 34.031 0.404781 34.623 0.420781C35.231 0.436781 35.823 0.444781 36.399 0.444781C37.103 0.444781 37.759 0.436781 38.367 0.420781C38.991 0.404781 39.487 0.388782 39.855 0.372782V0.852781C39.327 0.868781 38.919 0.932781 38.631 1.04478C38.359 1.14078 38.207 1.33278 38.175 1.62078C38.143 1.89278 38.231 2.30878 38.439 2.86878L42.855 14.2208L42.399 14.7728L45.999 5.17278C46.399 4.10078 46.599 3.25278 46.599 2.62878C46.599 2.00478 46.423 1.55678 46.071 1.28478C45.719 1.01278 45.215 0.868781 44.559 0.852781V0.372782C45.087 0.388782 45.583 0.404781 46.047 0.420781C46.527 0.436781 46.999 0.444781 47.463 0.444781C47.847 0.444781 48.183 0.436781 48.471 0.420781C48.775 0.404781 49.047 0.388782 49.287 0.372782Z" fill="black"/>
<path d="M64.4136 0.372782C64.3496 1.02878 64.3016 1.66878 64.2696 2.29278C64.2536 2.90078 64.2456 3.36478 64.2456 3.68478C64.2456 3.98878 64.2536 4.28478 64.2696 4.57278C64.2856 4.84478 64.3016 5.07678 64.3176 5.26878H63.7656C63.6376 4.16478 63.4296 3.30078 63.1416 2.67678C62.8536 2.03678 62.4616 1.58878 61.9656 1.33278C61.4856 1.06078 60.8536 0.92478 60.0696 0.92478H58.7496C58.2696 0.92478 57.9016 0.964781 57.6456 1.04478C57.3896 1.12478 57.2136 1.29278 57.1176 1.54878C57.0376 1.80478 56.9976 2.19678 56.9976 2.72478V15.0128C56.9976 15.5248 57.0376 15.9168 57.1176 16.1888C57.2136 16.4448 57.3896 16.6128 57.6456 16.6928C57.9016 16.7728 58.2696 16.8128 58.7496 16.8128H60.1176C60.9336 16.8128 61.6136 16.6608 62.1576 16.3568C62.7176 16.0528 63.1656 15.5568 63.5016 14.8688C63.8376 14.1648 64.0856 13.2048 64.2456 11.9888H64.7976C64.7496 12.4848 64.7256 13.1248 64.7256 13.9088C64.7256 14.2448 64.7336 14.7328 64.7496 15.3728C64.7816 16.0128 64.8296 16.6768 64.8936 17.3648C64.0776 17.3328 63.1576 17.3168 62.1336 17.3168C61.1096 17.3008 60.1976 17.2928 59.3976 17.2928C59.0296 17.2928 58.5416 17.2928 57.9336 17.2928C57.3416 17.2928 56.6936 17.3008 55.9896 17.3168C55.3016 17.3168 54.5976 17.3248 53.8776 17.3408C53.1736 17.3408 52.5016 17.3488 51.8616 17.3648V16.8848C52.3896 16.8528 52.7816 16.7888 53.0376 16.6928C53.3096 16.5968 53.4856 16.4048 53.5656 16.1168C53.6616 15.8288 53.7096 15.3968 53.7096 14.8208V2.91678C53.7096 2.32478 53.6616 1.89278 53.5656 1.62078C53.4856 1.33278 53.3096 1.14078 53.0376 1.04478C52.7816 0.932781 52.3896 0.868781 51.8616 0.852781V0.372782C52.5016 0.388782 53.1736 0.404781 53.8776 0.420781C54.5976 0.420781 55.3016 0.428781 55.9896 0.444781C56.6936 0.444781 57.3416 0.444781 57.9336 0.444781C58.5416 0.444781 59.0296 0.444781 59.3976 0.444781C60.1336 0.444781 60.9656 0.444781 61.8936 0.444781C62.8376 0.428781 63.6776 0.404781 64.4136 0.372782ZM60.5496 8.58078C60.5496 8.58078 60.5496 8.66078 60.5496 8.82078C60.5496 8.98078 60.5496 9.06078 60.5496 9.06078H56.2776C56.2776 9.06078 56.2776 8.98078 56.2776 8.82078C56.2776 8.66078 56.2776 8.58078 56.2776 8.58078H60.5496ZM61.2456 5.41278C61.1816 6.32478 61.1496 7.02078 61.1496 7.50078C61.1656 7.98078 61.1736 8.42078 61.1736 8.82078C61.1736 9.22078 61.1816 9.66078 61.1976 10.1408C61.2136 10.6208 61.2536 11.3168 61.3176 12.2288H60.7656C60.6856 11.6848 60.5576 11.1728 60.3816 10.6928C60.2216 10.1968 59.9576 9.80478 59.5896 9.51678C59.2376 9.21278 58.7256 9.06078 58.0536 9.06078V8.58078C58.5496 8.58078 58.9496 8.47678 59.2536 8.26878C59.5736 8.06078 59.8296 7.79678 60.0216 7.47678C60.2136 7.14078 60.3576 6.79678 60.4536 6.44478C60.5656 6.07678 60.6456 5.73278 60.6936 5.41278H61.2456Z" fill="black"/>
<path d="M84.3576 0.372782V0.852781C83.8456 0.900781 83.4536 1.02078 83.1816 1.21278C82.9096 1.38878 82.7256 1.67678 82.6296 2.07678C82.5496 2.46078 82.5096 3.01278 82.5096 3.73278V17.4368C82.3656 17.4208 82.2056 17.4128 82.0296 17.4128C81.8696 17.4128 81.6936 17.4208 81.5016 17.4368L71.2056 3.44478V13.8128C71.2056 14.5808 71.2536 15.1808 71.3496 15.6128C71.4456 16.0288 71.6536 16.3328 71.9736 16.5248C72.3096 16.7008 72.8136 16.8208 73.4856 16.8848V17.3648C73.1816 17.3328 72.7896 17.3168 72.3096 17.3168C71.8296 17.3008 71.3736 17.2928 70.9416 17.2928C70.5576 17.2928 70.1656 17.3008 69.7656 17.3168C69.3816 17.3168 69.0616 17.3328 68.8056 17.3648V16.8848C69.3336 16.8208 69.7256 16.7008 69.9816 16.5248C70.2536 16.3488 70.4296 16.0608 70.5096 15.6608C70.6056 15.2608 70.6536 14.7088 70.6536 14.0048V2.91678C70.6536 2.32478 70.6056 1.89278 70.5096 1.62078C70.4296 1.33278 70.2536 1.14078 69.9816 1.04478C69.7256 0.932781 69.3336 0.868781 68.8056 0.852781V0.372782C69.0616 0.388782 69.3816 0.404781 69.7656 0.420781C70.1656 0.436781 70.5576 0.444781 70.9416 0.444781C71.3096 0.444781 71.6696 0.436781 72.0216 0.420781C72.3736 0.404781 72.6856 0.388782 72.9576 0.372782L81.9576 12.3488V3.92478C81.9576 3.14078 81.9096 2.54078 81.8136 2.12478C81.7176 1.70878 81.5096 1.40478 81.1896 1.21278C80.8696 1.02078 80.3656 0.900781 79.6776 0.852781V0.372782C79.9816 0.388782 80.3736 0.404781 80.8536 0.420781C81.3496 0.436781 81.8056 0.444781 82.2216 0.444781C82.6216 0.444781 83.0136 0.436781 83.3976 0.420781C83.7976 0.404781 84.1176 0.388782 84.3576 0.372782Z" fill="black"/>
</g>
</g>
</svg>
