<svg width="32" height="24" viewBox="0 0 32 24" fill="none" xmlns="http://www.w3.org/2000/svg">
<g id="logo">
<path id="icon/discord" d="M26.7582 2.0157C24.6856 1.05954 22.4968 0.381818 20.2482 0C19.9617 0.496011 19.6437 1.16842 19.4202 1.69609C17.0289 1.34414 14.5994 1.34414 12.2082 1.69609C11.9847 1.16842 11.6487 0.496011 11.3787 0C9.12803 0.377315 6.93765 1.05522 4.86567 2.0157C0.745169 8.12765 -0.369331 14.0964 0.188669 19.9837C2.60308 21.7654 5.30019 23.1233 8.16567 24C8.80939 23.1266 9.37938 22.2008 9.86967 21.232C8.92917 20.8792 8.03967 20.448 7.17867 19.9354C7.40217 19.7756 7.62417 19.5992 7.83117 19.4228C13.0212 21.8079 18.6417 21.8079 23.7672 19.4228C23.9907 19.5992 24.1977 19.7756 24.4197 19.9354C23.5602 20.448 22.6692 20.8792 21.7302 21.232C22.22 22.2007 22.7895 23.1266 23.4327 24C26.2992 23.1259 28.9967 21.7678 31.4097 19.9837C32.0952 13.1692 30.3267 7.24719 26.7597 2.0157H26.7582ZM10.5837 16.3518C9.02367 16.3518 7.75017 14.9271 7.75017 13.1842C7.75017 11.4399 8.99217 10.0152 10.5852 10.0152C12.1602 10.0152 13.4502 11.4399 13.4172 13.1842C13.4172 14.9271 12.1602 16.3518 10.5837 16.3518ZM21.0447 16.3518C19.4847 16.3518 18.2097 14.9271 18.2097 13.1842C18.2097 11.4399 19.4517 10.0152 21.0447 10.0152C22.6197 10.0152 23.9097 11.4399 23.8782 13.1842C23.8782 14.9271 22.6362 16.3503 21.0432 16.3503L21.0447 16.3518Z" fill="black"/>
</g>
</svg>
