<svg width="25" height="24" viewBox="0 0 25 24" fill="none" xmlns="http://www.w3.org/2000/svg">
<g id="Group">
<path id="Vector" d="M5.26465 23.9121H0.140625V6.83203H5.26465V23.9121ZM24.0527 23.9121H18.9287V14.7879C18.9287 12.4104 18.0815 11.2267 16.4026 11.2267C15.072 11.2267 14.2283 11.8894 13.8047 13.2166V23.9121H8.68067C8.68067 23.9121 8.74899 8.54004 8.68067 6.83203H12.7252L13.0378 10.248H13.1437C14.1941 8.54004 15.8731 7.38201 18.1755 7.38201C19.9262 7.38201 21.3421 7.86879 22.4233 9.09173C23.5113 10.3164 24.0527 11.9595 24.0527 14.267V23.9121Z" fill="black"/>
<path id="Vector_2" d="M2.7021 5.12402C4.16423 5.12402 5.34951 3.97697 5.34951 2.56201C5.34951 1.14705 4.16423 0 2.7021 0C1.23997 0 0.0546875 1.14705 0.0546875 2.56201C0.0546875 3.97697 1.23997 5.12402 2.7021 5.12402Z" fill="black"/>
</g>
</svg>
