<svg width="16" height="16" viewBox="0 0 16 16" fill="none" xmlns="http://www.w3.org/2000/svg">
<g id="icon">
<g id="Vertical container">
<path id="Vector" d="M11.5308 4.34673C12.7134 5.52931 13.2104 7.13873 13.022 8.67977L13.8091 8.77771C13.896 8.78695 13.932 8.89319 13.8701 8.95509L12.3198 10.4906C12.2727 10.5377 12.1923 10.5276 12.1572 10.4703L11.0245 8.60586C11.0143 8.58905 11.009 8.56969 11.0093 8.55002C11.0096 8.53035 11.0155 8.51116 11.0262 8.49465C11.0369 8.47815 11.052 8.465 11.0699 8.45673C11.0877 8.44845 11.1076 8.44539 11.1271 8.44788L11.9844 8.5532C12.0048 8.38505 12.0149 8.21413 12.0149 8.04229C12.0159 7.50297 11.912 6.96861 11.7091 6.46891C11.4994 5.9506 11.1899 5.48589 10.7908 5.08677C10.3917 4.68765 9.92695 4.37814 9.40864 4.16842C8.90789 3.96517 8.37851 3.86261 7.83526 3.86261C7.29201 3.86261 6.76262 3.96517 6.26188 4.16842C5.74357 4.37814 5.27886 4.68765 4.87974 5.08677L4.14617 4.34211C6.18981 2.30401 9.48995 2.30586 11.5308 4.34673Z" fill="black"/>
<path id="Vector_2" d="M4.1645 11.6533C2.98192 10.4707 2.48486 8.86127 2.67334 7.32023L1.88618 7.22229C1.79934 7.21305 1.76331 7.10681 1.82521 7.04491L3.37549 5.5094C3.42261 5.46228 3.50299 5.47245 3.5381 5.52973L4.67079 7.39414C4.68101 7.41095 4.68628 7.43031 4.68599 7.44998C4.6857 7.46965 4.67986 7.48884 4.66915 7.50535C4.65843 7.52185 4.64328 7.535 4.62543 7.54327C4.60758 7.55155 4.58775 7.55461 4.56823 7.55212L3.71087 7.4468C3.69054 7.61495 3.68038 7.78587 3.68038 7.95771C3.67944 8.49703 3.7833 9.03139 3.98618 9.53109C4.19591 10.0494 4.50541 10.5141 4.90453 10.9132C5.30365 11.3124 5.76837 11.6219 6.28667 11.8316C6.78742 12.0348 7.31681 12.1374 7.86005 12.1374C8.4033 12.1374 8.93269 12.0348 9.43344 11.8316C9.95174 11.6219 10.4165 11.3124 10.8156 10.9132L11.5491 11.6579C9.5055 13.696 6.20537 13.6941 4.1645 11.6533Z" fill="black"/>
<path id="Vector_3" d="M10.1721 9.11171L8.11981 7.57206L8.60012 7.21172C8.6205 7.19648 8.63705 7.17671 8.64846 7.15396C8.65987 7.13122 8.66582 7.10613 8.66585 7.08068C8.66585 6.86348 8.57956 6.65517 8.42598 6.50159C8.27239 6.348 8.06409 6.26172 7.84689 6.26172C7.62969 6.26172 7.42138 6.348 7.2678 6.50159C7.11421 6.65517 7.02793 6.86348 7.02793 7.08068C7.02793 7.12412 7.04519 7.16578 7.0759 7.1965C7.10662 7.22722 7.14828 7.24447 7.19172 7.24447C7.23516 7.24447 7.27682 7.22722 7.30754 7.1965C7.33826 7.16578 7.35551 7.12412 7.35551 7.08068C7.35584 6.95731 7.40257 6.83858 7.48641 6.74807C7.57025 6.65756 7.68507 6.60191 7.80806 6.59216C7.93105 6.58241 8.0532 6.61928 8.15025 6.69545C8.2473 6.77162 8.31215 6.88151 8.33192 7.00329L7.75148 7.43877L7.74575 7.44307L5.52166 9.11171C5.4667 9.15293 5.42609 9.21039 5.40557 9.27596C5.38506 9.34152 5.38567 9.41188 5.40734 9.47708C5.429 9.54228 5.47062 9.59901 5.52629 9.63926C5.58197 9.67951 5.64889 9.70124 5.7176 9.70136H9.97618C10.0449 9.70136 10.1119 9.67973 10.1677 9.63953C10.2235 9.59933 10.2652 9.5426 10.287 9.47737C10.3087 9.41214 10.3094 9.34173 10.2889 9.2761C10.2684 9.21048 10.2271 9.15296 10.1721 9.11171ZM9.97618 9.37378H5.7176L7.84689 7.7768L9.97618 9.37378Z" fill="black" stroke="black" stroke-width="0.38528"/>
</g>
</g>
</svg>
