<svg width="16" height="16" viewBox="0 0 16 16" fill="none" xmlns="http://www.w3.org/2000/svg">
<g id="icon">
<path id="Vector" d="M6 13C5.725 13 5.48967 12.9022 5.294 12.7065C5.098 12.5105 5 12.275 5 12C5 11.725 5.098 11.4895 5.294 11.2935C5.48967 11.0978 5.725 11 6 11C6.275 11 6.51033 11.0978 6.706 11.2935C6.902 11.4895 7 11.725 7 12C7 12.275 6.902 12.5105 6.706 12.7065C6.51033 12.9022 6.275 13 6 13ZM11 13C10.725 13 10.4897 12.9022 10.294 12.7065C10.098 12.5105 10 12.275 10 12C10 11.725 10.098 11.4895 10.294 11.2935C10.4897 11.0978 10.725 11 11 11C11.275 11 11.5105 11.0978 11.7065 11.2935C11.9022 11.4895 12 11.725 12 12C12 12.275 11.9022 12.5105 11.7065 12.7065C11.5105 12.9022 11.275 13 11 13ZM5.575 5L6.775 7.5H10.275L11.65 5H5.575ZM4.3125 10.5L5.8 7.8L4 4H3V3H4.625L5.1 4H13.35L10.8625 8.5H6.55L6 9.5H12V10.5H4.3125Z" fill="white"/>
</g>
</svg>
