<svg width="16" height="16" viewBox="0 0 16 16" fill="none" xmlns="http://www.w3.org/2000/svg">
<g id="icon">
<path id="Vector" d="M12.9172 10.4912C12.9702 10.5443 13 10.6162 13 10.6912C13 10.7662 12.9702 10.8382 12.9172 10.8912L11.7851 12.0233C11.7315 12.0733 11.6605 12.1005 11.5872 12.0992C11.5139 12.098 11.4439 12.0682 11.392 12.0164C11.3402 11.9645 11.3105 11.8946 11.3092 11.8213C11.3079 11.7479 11.3351 11.677 11.3851 11.6233L12.0342 10.9742H9.89262C9.78749 10.9741 9.68389 10.949 9.59039 10.9009C9.49689 10.8529 9.41616 10.7832 9.35488 10.6978L5.80715 5.73072C5.79842 5.71846 5.78689 5.70847 5.77351 5.70158C5.76013 5.69468 5.7453 5.69109 5.73026 5.6911H3.28303C3.20796 5.6911 3.13597 5.66128 3.0829 5.6082C3.02982 5.55512 3 5.48313 3 5.40807C3 5.33301 3.02982 5.26102 3.0829 5.20794C3.13597 5.15486 3.20796 5.12504 3.28303 5.12504H5.73026C5.83539 5.12516 5.93899 5.15029 6.03249 5.19836C6.12599 5.24642 6.20672 5.31604 6.26801 5.40147L9.81574 10.3686C9.82446 10.3808 9.836 10.3908 9.84937 10.3977C9.86275 10.4046 9.87758 10.4082 9.89262 10.4082H12.0342L11.3851 9.75912C11.3351 9.70547 11.3079 9.63451 11.3092 9.56118C11.3105 9.48786 11.3402 9.4179 11.392 9.36605C11.4439 9.31419 11.5139 9.28449 11.5872 9.28319C11.6605 9.2819 11.7315 9.30912 11.7851 9.35911L12.9172 10.4912ZM8.5742 6.98169C8.60445 7.00329 8.63867 7.01871 8.67489 7.02707C8.71111 7.03544 8.74862 7.03659 8.78529 7.03046C8.82195 7.02433 8.85705 7.01103 8.88857 6.99133C8.9201 6.97163 8.94743 6.94592 8.96902 6.91565L9.81809 5.73072C9.82682 5.71846 9.83835 5.70847 9.85173 5.70158C9.86511 5.69468 9.87994 5.69109 9.89498 5.6911H12.0365L11.3851 6.34017C11.3573 6.36608 11.335 6.39733 11.3195 6.43204C11.3041 6.46676 11.2957 6.50424 11.2951 6.54224C11.2944 6.58024 11.3014 6.61799 11.3156 6.65323C11.3299 6.68847 11.3511 6.72049 11.3779 6.74736C11.4048 6.77424 11.4368 6.79543 11.4721 6.80966C11.5073 6.82389 11.5451 6.83089 11.5831 6.83022C11.6211 6.82954 11.6585 6.82123 11.6932 6.80576C11.728 6.79029 11.7592 6.76799 11.7851 6.74018L12.9172 5.60807C12.9702 5.55501 13 5.48307 13 5.40807C13 5.33307 12.9702 5.26113 12.9172 5.20806L11.7851 4.07596C11.7315 4.02597 11.6605 3.99875 11.5872 4.00004C11.5139 4.00134 11.4439 4.03104 11.392 4.0829C11.3402 4.13475 11.3105 4.20471 11.3092 4.27803C11.3079 4.35136 11.3351 4.42232 11.3851 4.47597L12.0342 5.12504H9.89262C9.78749 5.12516 9.68389 5.15029 9.59039 5.19836C9.49689 5.24642 9.41616 5.31604 9.35488 5.40147L8.50863 6.58734C8.46512 6.64836 8.44759 6.72415 8.45988 6.79807C8.47217 6.872 8.51328 6.93804 8.5742 6.98169ZM7.04869 9.1176C7.01843 9.096 6.98421 9.08058 6.94799 9.07222C6.91177 9.06385 6.87426 9.0627 6.8376 9.06883C6.80093 9.07496 6.76584 9.08826 6.73431 9.10796C6.70279 9.12766 6.67545 9.15337 6.65386 9.18364L5.80715 10.3686C5.79842 10.3808 5.78689 10.3908 5.77351 10.3977C5.76013 10.4046 5.7453 10.4082 5.73026 10.4082H3.28303C3.20796 10.4082 3.13597 10.438 3.0829 10.4911C3.02982 10.5442 3 10.6162 3 10.6912C3 10.7663 3.02982 10.8383 3.0829 10.8914C3.13597 10.9444 3.20796 10.9742 3.28303 10.9742H5.73026C5.83539 10.9741 5.93899 10.949 6.03249 10.9009C6.12599 10.8529 6.20672 10.7832 6.26801 10.6978L7.11425 9.51195C7.15776 9.45093 7.17529 9.37514 7.163 9.30121C7.15071 9.22729 7.1096 9.16125 7.04869 9.1176Z" fill="black"/>
</g>
</svg>
